<svg width="51" height="51" viewBox="0 0 51 51" fill="none" xmlns="http://www.w3.org/2000/svg">
<g clip-path="url(#clip0_2_5666)">
<circle cx="25.5" cy="25.5" r="25.5" stroke="#FFC80A" stroke-width="3"/>
<path fill-rule="evenodd" clip-rule="evenodd" d="M36.911 26.4046C36.861 26.5346 36.788 26.6576 36.683 26.7626L28.731 34.7126C28.331 35.1136 27.684 35.1136 27.285 34.7126C26.886 34.3156 26.886 33.6686 27.285 33.2686L33.553 27.0006H15C14.448 27.0006 14 26.5526 14 26.0006C14 25.4476 14.448 25.0006 15 25.0006H33.555L27.285 18.7296C26.886 18.3306 26.886 17.6826 27.285 17.2836C27.684 16.8846 28.331 16.8846 28.731 17.2836L36.683 25.2366C36.789 25.3416 36.862 25.4656 36.912 25.5966C36.967 25.7206 37 25.8566 37 26.0006C37 26.1446 36.966 26.2806 36.911 26.4046Z" fill="#4E4E4E"/>
</g>
<defs>
<clipPath id="clip0_2_5666">
<rect width="51" height="51" fill="white"/>
</clipPath>
</defs>
</svg>
