<svg width="12" height="14" viewBox="0 0 12 14" fill="none" xmlns="http://www.w3.org/2000/svg">
<path fill-rule="evenodd" clip-rule="evenodd" d="M11.911 7.40342C11.861 7.53342 11.787 7.65542 11.683 7.76042L6.731 12.7134C6.331 13.1124 5.684 13.1124 5.285 12.7134C4.885 12.3134 4.885 11.6664 5.285 11.2674L8.553 7.99942H1C0.448 7.99942 0 7.55142 0 6.99942V6.99842C0 6.44642 0.448 5.99842 1 5.99842H8.555L5.285 2.72842C4.885 2.32942 4.885 1.68142 5.285 1.28242C5.684 0.882422 6.331 0.882422 6.731 1.28242L11.683 6.23542C11.788 6.34042 11.862 6.46442 11.912 6.59542C11.967 6.71942 12 6.85442 12 6.99842V6.99942C12 7.14342 11.966 7.27942 11.911 7.40342Z" fill="white"/>
</svg>
