<svg width="51" height="51" viewBox="0 0 51 51" fill="none" xmlns="http://www.w3.org/2000/svg">
<g clip-path="url(#clip0_2_5670)">
<circle cx="25.5" cy="25.5" r="25.5" transform="rotate(-180 25.5 25.5)" stroke="#FFC80A" stroke-width="3"/>
<path fill-rule="evenodd" clip-rule="evenodd" d="M14.089 24.5954C14.139 24.4654 14.212 24.3424 14.317 24.2374L22.269 16.2874C22.669 15.8864 23.316 15.8864 23.715 16.2874C24.114 16.6844 24.114 17.3314 23.715 17.7314L17.447 23.9994H36C36.552 23.9994 37 24.4474 37 24.9994C37 25.5524 36.552 25.9994 36 25.9994H17.445L23.715 32.2704C24.114 32.6694 24.114 33.3174 23.715 33.7164C23.316 34.1154 22.669 34.1154 22.269 33.7164L14.317 25.7634C14.211 25.6584 14.138 25.5344 14.088 25.4034C14.033 25.2794 14 25.1434 14 24.9994C14 24.8554 14.034 24.7194 14.089 24.5954Z" fill="#4E4E4E"/>
</g>
<defs>
<clipPath id="clip0_2_5670">
<rect width="51" height="51" fill="white" transform="translate(51 51) rotate(-180)"/>
</clipPath>
</defs>
</svg>
