<svg width="118" height="29" viewBox="0 0 118 29" fill="none" xmlns="http://www.w3.org/2000/svg">
<path d="M0.407 2.7H5.105V19.172H15.284V23H0.407V2.7ZM24.0529 7.166C26.4695 7.166 28.3255 7.746 29.6209 8.906C30.9162 10.0467 31.5639 11.777 31.5639 14.097V23H27.3299V21.057C26.4792 22.507 24.8939 23.232 22.5739 23.232C21.3752 23.232 20.3312 23.029 19.4419 22.623C18.5719 22.217 17.9049 21.6563 17.4409 20.941C16.9769 20.2257 16.7449 19.4137 16.7449 18.505C16.7449 17.055 17.2862 15.9143 18.3689 15.083C19.4709 14.2517 21.1625 13.836 23.4439 13.836H27.0399C27.0399 12.85 26.7402 12.096 26.1409 11.574C25.5415 11.0327 24.6425 10.762 23.4439 10.762C22.6125 10.762 21.7909 10.8973 20.9789 11.168C20.1862 11.4193 19.5095 11.7673 18.9489 12.212L17.3249 9.051C18.1755 8.45167 19.1905 7.98767 20.3699 7.659C21.5685 7.33033 22.7962 7.166 24.0529 7.166ZM23.7049 20.187C24.4782 20.187 25.1645 20.013 25.7639 19.665C26.3632 19.2977 26.7885 18.766 27.0399 18.07V16.475H23.9369C22.0809 16.475 21.1529 17.084 21.1529 18.302C21.1529 18.882 21.3752 19.346 21.8199 19.694C22.2839 20.0227 22.9122 20.187 23.7049 20.187ZM45.1413 7.166C47.0746 7.166 48.631 7.746 49.8103 8.906C51.009 10.066 51.6083 11.7867 51.6083 14.068V23H47.0843V14.764C47.0843 13.5267 46.8136 12.6083 46.2723 12.009C45.731 11.3903 44.948 11.081 43.9233 11.081C42.7826 11.081 41.874 11.4387 41.1973 12.154C40.5206 12.85 40.1823 13.894 40.1823 15.286V23H35.6583V7.398H39.9793V9.225C40.5786 8.56767 41.323 8.065 42.2123 7.717C43.1016 7.34967 44.078 7.166 45.1413 7.166ZM71.771 1.482V23H67.45V21.202C66.3287 22.5553 64.7047 23.232 62.578 23.232C61.1087 23.232 59.7747 22.9033 58.576 22.246C57.3967 21.5887 56.4687 20.651 55.792 19.433C55.1153 18.215 54.777 16.8037 54.777 15.199C54.777 13.5943 55.1153 12.183 55.792 10.965C56.4687 9.747 57.3967 8.80933 58.576 8.152C59.7747 7.49467 61.1087 7.166 62.578 7.166C64.5693 7.166 66.1257 7.79433 67.247 9.051V1.482H71.771ZM63.361 19.52C64.5017 19.52 65.449 19.1333 66.203 18.36C66.957 17.5673 67.334 16.5137 67.334 15.199C67.334 13.8843 66.957 12.8403 66.203 12.067C65.449 11.2743 64.5017 10.878 63.361 10.878C62.201 10.878 61.244 11.2743 60.49 12.067C59.736 12.8403 59.359 13.8843 59.359 15.199C59.359 16.5137 59.736 17.5673 60.49 18.36C61.244 19.1333 62.201 19.52 63.361 19.52Z" fill="#212121"/>
<path d="M78.7711 3.396C78.7711 2.39067 79.0901 1.627 79.7281 1.105C80.3855 0.582998 81.2458 0.321998 82.3091 0.321998C83.1598 0.321998 83.7978 0.486332 84.2231 0.814999C84.6678 1.14367 84.8901 1.63667 84.8901 2.294C84.8901 3.18333 84.5518 3.90833 83.8751 4.469C83.1985 5.02967 82.3478 5.31 81.3231 5.31C80.4918 5.31 79.8538 5.14567 79.4091 4.817C78.9838 4.48833 78.7711 4.01467 78.7711 3.396ZM77.5531 10.414C77.6498 10.1627 77.6981 9.921 77.6981 9.689C77.6981 9.36033 77.5628 9.196 77.2921 9.196C76.9828 9.196 76.7025 9.33133 76.4511 9.602C76.1998 9.87267 75.9485 10.3463 75.6971 11.023L75.0301 12.792H74.4791L75.2911 10.53C76.0065 8.53867 77.4468 7.543 79.6121 7.543C80.6561 7.543 81.4198 7.79433 81.9031 8.297C82.3865 8.79967 82.6281 9.43767 82.6281 10.211C82.6281 10.6363 82.5508 11.1003 82.3961 11.603L79.3801 20.535C79.2835 20.8637 79.2351 21.0957 79.2351 21.231C79.2351 21.579 79.3995 21.753 79.7281 21.753C80.2888 21.753 80.8011 21.144 81.2651 19.926L81.8741 18.302H82.4251L81.7001 20.419C81.0041 22.4103 79.6218 23.406 77.5531 23.406C76.5671 23.406 75.8035 23.174 75.2621 22.71C74.7208 22.246 74.4501 21.5597 74.4501 20.651C74.4501 20.0323 74.5951 19.288 74.8851 18.418L77.5531 10.414ZM99.8233 18.302H100.374L99.6493 20.419C98.9533 22.4103 97.571 23.406 95.5023 23.406C94.265 23.406 93.395 23.058 92.8923 22.362C92.5636 21.9173 92.3993 21.376 92.3993 20.738C92.3993 20.1193 92.554 19.346 92.8633 18.418L95.3573 10.907C95.512 10.4623 95.5893 10.0853 95.5893 9.776C95.5893 9.486 95.4926 9.341 95.2993 9.341C94.7966 9.341 94.149 10.0177 93.3563 11.371C92.5636 12.7243 91.7516 14.4547 90.9203 16.562C90.1083 18.6693 89.422 20.7863 88.8613 22.913V22.855L88.8323 23H83.6993L87.2373 10.414C87.3533 10.0273 87.4113 9.747 87.4113 9.573C87.4113 9.32167 87.2663 9.196 86.9763 9.196C86.667 9.196 86.3866 9.33133 86.1353 9.602C85.884 9.87267 85.6326 10.3463 85.3813 11.023L84.7143 12.792H84.1633L84.9753 10.53C85.3426 9.50533 85.8453 8.75133 86.4833 8.268C87.1213 7.78467 87.943 7.543 88.9483 7.543C90.031 7.543 90.8043 7.79433 91.2683 8.297C91.7516 8.79967 91.9933 9.457 91.9933 10.269C91.9933 10.7137 91.9353 11.1583 91.8193 11.603L91.0363 14.619C91.7903 12.7243 92.5056 11.2743 93.1823 10.269C93.8783 9.24433 94.584 8.53867 95.2993 8.152C96.0146 7.746 96.8266 7.543 97.7353 7.543C99.63 7.543 100.577 8.34533 100.577 9.95C100.577 10.472 100.452 11.1293 100.2 11.922L97.3293 20.535C97.2326 20.8637 97.1843 21.0957 97.1843 21.231C97.1843 21.579 97.3486 21.753 97.6773 21.753C98.238 21.753 98.7503 21.144 99.2143 19.926L99.8233 18.302ZM115.429 6.209C116.067 6.209 116.56 6.39267 116.908 6.76C117.256 7.108 117.43 7.56233 117.43 8.123C117.43 8.66433 117.285 9.09933 116.995 9.428C116.725 9.73733 116.396 9.892 116.009 9.892C115.623 9.892 115.284 9.73733 114.994 9.428C114.704 9.09933 114.559 8.65467 114.559 8.094C114.559 7.688 114.646 7.24333 114.82 6.76C114.047 7.06933 113.448 7.52367 113.022 8.123C114.202 8.703 114.791 9.62133 114.791 10.878C114.791 11.69 114.55 12.4923 114.066 13.285C113.602 14.0777 112.926 14.764 112.036 15.344C111.147 15.924 110.122 16.3203 108.962 16.533C108.054 16.881 107.377 17.1903 106.932 17.461C106.507 17.7317 106.294 17.983 106.294 18.215C106.294 18.3697 106.372 18.4953 106.526 18.592C106.681 18.6887 106.942 18.8047 107.309 18.94L109.948 19.926C110.934 20.2933 111.727 20.7477 112.326 21.289C112.945 21.8303 113.254 22.5553 113.254 23.464C113.254 24.5467 112.79 25.465 111.862 26.219C110.954 26.973 109.794 27.5337 108.382 27.901C106.99 28.2683 105.589 28.452 104.177 28.452C102.65 28.452 101.316 28.249 100.175 27.843C99.0347 27.437 98.4644 26.8957 98.4644 26.219C98.4644 25.5617 99.0347 25.0493 100.175 24.682C101.316 24.334 102.544 24.16 103.858 24.16C104.168 24.16 104.4 24.1697 104.554 24.189L104.583 24.624C103.443 25.262 102.872 25.9387 102.872 26.654C102.872 27.06 103.037 27.379 103.365 27.611C103.694 27.843 104.168 27.959 104.786 27.959C105.424 27.959 106.091 27.843 106.787 27.611C107.503 27.379 108.092 27.06 108.556 26.654C109.02 26.248 109.252 25.8033 109.252 25.32C109.252 24.9527 109.117 24.6917 108.846 24.537C108.595 24.3823 108.17 24.2083 107.57 24.015L103.626 22.768C103.085 22.594 102.64 22.3427 102.292 22.014C101.944 21.666 101.77 21.2503 101.77 20.767C101.77 19.9937 102.234 19.317 103.162 18.737C104.09 18.1377 105.521 17.461 107.454 16.707H107.106C105.676 16.707 104.525 16.4363 103.655 15.895C102.785 15.3343 102.35 14.503 102.35 13.401C102.35 12.4537 102.66 11.5353 103.278 10.646C103.916 9.73733 104.815 9.00267 105.975 8.442C107.155 7.862 108.508 7.572 110.035 7.572C110.983 7.572 111.766 7.67833 112.384 7.891C112.771 7.369 113.225 6.963 113.747 6.673C114.289 6.36367 114.849 6.209 115.429 6.209ZM107.193 14.532C107.193 15.17 107.232 15.605 107.309 15.837C107.387 16.069 107.532 16.185 107.744 16.185C108.131 16.185 108.489 15.8853 108.817 15.286C109.146 14.6673 109.407 13.865 109.6 12.879C109.794 11.8737 109.89 10.82 109.89 9.718C109.89 9.21533 109.852 8.819 109.774 8.529C109.697 8.239 109.533 8.094 109.281 8.094C108.953 8.094 108.624 8.39367 108.295 8.993C107.967 9.59233 107.696 10.385 107.483 11.371C107.29 12.357 107.193 13.4107 107.193 14.532Z" fill="#FFC80A"/>
</svg>
