<svg width="16" height="16" viewBox="0 0 16 16" fill="none" xmlns="http://www.w3.org/2000/svg">
<path fill-rule="evenodd" clip-rule="evenodd" d="M14.7597 14.7599C14.3697 15.1509 13.7367 15.1509 13.3457 14.7599L10.4457 11.8599C8.10269 13.5269 4.8397 13.3259 2.7387 11.2239C0.395695 8.88092 0.395695 5.08192 2.7387 2.73892C5.0827 0.396922 8.8817 0.396922 11.2247 2.73892C13.3257 4.83992 13.5267 8.10292 11.8597 10.4459L14.7597 13.3449C15.1507 13.7359 15.1507 14.3689 14.7597 14.7599ZM9.8097 4.15392C8.24769 2.59092 5.7157 2.59092 4.1537 4.15392C2.5907 5.71492 2.5907 8.24692 4.1537 9.80992C5.7157 11.3719 8.24769 11.3719 9.8097 9.80992C11.3727 8.24692 11.3727 5.71492 9.8097 4.15392Z" fill="#242424"/>
</svg>
