<svg width="12" height="14" viewBox="0 0 12 14" fill="none" xmlns="http://www.w3.org/2000/svg">
<path fill-rule="evenodd" clip-rule="evenodd" d="M8.988 8.663C8.988 8.663 8.36 7.631 7.516 7.509C6.672 7.387 3.014 8.218 3.014 8.218C3.014 8.218 2.121 7.999 1.954 7.344C1.945 7.309 1.935 7.271 1.926 7.234V13.025C1.926 13.563 1.495 14 0.963 14C0.431 14 0 13.563 0 13.025V0.974C0 0.436 0.431 0 0.963 0C1.495 0 1.926 0.436 1.926 0.974V1.201C2.525 1.542 3.44 1.829 4.795 1.727C7.749 1.504 9.393 0.963 10.667 1.649C11.942 2.337 12 3.011 12 3.011L8.988 8.663Z" fill="#FFC80A"/>
</svg>
